<svg xmlns="http://www.w3.org/2000/svg" version="1.1" xmlns:xlink="http://www.w3.org/1999/xlink" xmlns:svgjs="http://svgjs.dev/svgjs" width="128" height="128"><svg version="1.1" viewBox="0.0 0.0 128.0 128.0" fill="none" stroke="none" stroke-linecap="square" stroke-miterlimit="10" xmlns:xlink="http://www.w3.org/1999/xlink" xmlns="http://www.w3.org/2000/svg"><clipPath id="SvgjsClipPath1001"><path d="m0 0l128.0 0l0 128.0l-128.0 0l0 -128.0z" clip-rule="nonzero"></path></clipPath><g clip-path="url(#p.0)"><path fill="#000000" fill-opacity="0.0" d="m0 0l128.0 0l0 128.0l-128.0 0z" fill-rule="evenodd"></path><path fill="#fcddf2" d="m0.38057742 21.270767l0 0c0 -11.74752 9.523247 -21.270767 21.270767 -21.270767l85.08051 0l0 0c5.6413574 0 11.051659 2.2410207 15.040703 6.2300634c3.9890442 3.9890423 6.2300644 9.399345 6.2300644 15.040704l0 85.458466c0 11.74752 -9.523247 21.270767 -21.270767 21.270767l-85.08051 0l0 0c-11.74752 0 -21.270767 -9.523247 -21.270767 -21.270767z" fill-rule="evenodd"></path><path stroke="#ec0b43" stroke-width="1.0" stroke-linejoin="round" stroke-linecap="butt" d="m0.38057742 21.270767l0 0c0 -11.74752 9.523247 -21.270767 21.270767 -21.270767l85.08051 0l0 0c5.6413574 0 11.051659 2.2410207 15.040703 6.2300634c3.9890442 3.9890423 6.2300644 9.399345 6.2300644 15.040704l0 85.458466c0 11.74752 -9.523247 21.270767 -21.270767 21.270767l-85.08051 0l0 0c-11.74752 0 -21.270767 -9.523247 -21.270767 -21.270767z" fill-rule="evenodd"></path><path fill="#000000" fill-opacity="0.0" d="m0.38057742 42.992126l127.62205 0l0 42.015747l-127.62205 0z" fill-rule="evenodd"></path><path fill="#010001" d="m101.03132 104.34688l-0.140625 -40.53125l-36.515625 0l0 14.25l18.046875 0l-0.078125 19.828125q-1.0 1.21875 -2.71875 2.1875q-1.71875 0.96875 -3.875 1.609375q-2.21875 0.71875 -4.65625 1.078125q-2.421875 0.359375 -4.859375 0.28125q-4.015629 -0.078125 -7.203129 -1.328125q-3.1875 -1.25 -5.609375 -3.609375q-1.65625 -1.65625 -2.953125 -3.796875q-1.28125 -2.15625 -2.203125 -4.65625q-1.375 -3.65625 -2.09375 -8.203125q-0.703125 -4.546875 -0.78125 -9.84375l0 -13.890625q0 -4.375 0.53125 -8.3125q0.546875 -3.9375 1.625 -7.21875q1.21875 -4.09375 3.140625 -7.234375q1.9375 -3.15625 4.453125 -5.15625q2.0 -1.65625 4.46875 -2.546875q2.46875 -0.890625 5.265629 -0.890625q4.4375 0 7.625 1.1875q3.1875 1.171875 5.328125 3.53125q1.9375 2.15625 3.109375 5.265625q1.1875 3.109375 1.765625 7.046875l18.1875 0q-0.71875 -7.4375 -3.328125 -13.453125q-2.609375 -6.015625 -7.125 -10.25q-4.515625 -4.140626 -11.0 -6.359376q-6.46875 -2.234375 -14.921875 -2.234375q-5.953129 0 -11.140629 1.65625q-5.1875 1.640625 -9.484375 4.796876q-3.875 2.859375 -6.953125 6.734375q-3.078125 3.859375 -5.359375 8.65625q-2.375 5.296875 -3.671875 11.5625q-1.28125 6.265625 -1.28125 13.359375l0 13.75q0 7.375 1.328125 13.859375q1.328125 6.484375 3.984375 11.78125q2.28125 4.859375 5.640625 8.765625q3.375 3.90625 7.59375 6.625q4.234375 2.65625 9.34375 4.125q5.125 1.46875 11.000004 1.46875q6.515625 0 12.28125 -1.265625q5.765625 -1.25 10.484375 -3.46875q4.234375 -1.9375 7.453125 -4.328125q3.21875 -2.40625 5.296875 -4.828125z" fill-rule="nonzero"></path></g></svg><style>@media (prefers-color-scheme: light) { :root { filter: none; } }
@media (prefers-color-scheme: dark) { :root { filter: none; } }
</style></svg>